<?xml version="1.0" encoding="utf-8"?>
<!-- Generator: Adobe Illustrator 26.0.1, SVG Export Plug-In . SVG Version: 6.00 Build 0)  -->
<svg version="1.1" id="Layer_1" xmlns="http://www.w3.org/2000/svg" xmlns:xlink="http://www.w3.org/1999/xlink" x="0px" y="0px"
	 viewBox="0 0 140.1 160.1" style="enable-background:new 0 0 140.1 160.1;" xml:space="preserve">
<style type="text/css">
	.st0{opacity:0.28;fill:#221C3A;}
	.st1{fill:#FFFFFF;}
	.st2{fill:url(#SVGID_1_);}
	.st3{fill:url(#SVGID_00000064355752791884258300000006364405808163189666_);}
	.st4{fill:url(#SVGID_00000113334195977021344420000007516419701854774659_);}
</style>
<g>
	<ellipse class="st0" cx="66.2" cy="134.2" rx="46" ry="7"/>
	<path class="st1" d="M58.9,139.1c-2,0-3.8-0.3-5.4-0.8c-13.1-2.7-29.3-13.3-33.9-30.2c-4.6-16.7-3.5-35.5-3-43.5
		c0.1-1.1,0.1-1.9,0.1-2.5l0-0.2l0-0.2c0.3-1.6,6.6-38.7,30.6-42.1c1.6-0.2,3.2-0.4,4.8-0.6c0.9-0.3,1.8-0.4,2.6-0.6
		c2.9-0.4,8-0.6,15.3-0.6c4.2,0,8.2,0.1,10.5,0.1l1.1,0c11.2,0.2,16.6,3.1,21.6,6.4c9.1,6,20.1,20.4,21,41.4l0,0.4
		c1,22.3,1.8,39.9-10.1,55.1c-10.6,13.6-17.8,16.3-29.9,17.1c-0.7,0.1-6.3,0.2-14.7,0.4l-6.9,0.2l-1.1,0.1c-0.4,0-0.8,0-1.3,0
		l-0.2,0C59.7,139.1,59.3,139.1,58.9,139.1z"/>
	<linearGradient id="SVGID_1_" gradientUnits="userSpaceOnUse" x1="34.0567" y1="37.5791" x2="114.2984" y2="117.8208">
		<stop  offset="0" style="stop-color:#478ECC"/>
		<stop  offset="0.9944" style="stop-color:#3C598F"/>
	</linearGradient>
	<path class="st2" d="M38.2,61.7c0,0-5.1-37.2,17-40.4c6.2-0.9,22.3-0.5,26.4-0.5c10.6,0.2,15.5,3,20,5.9c6.3,4.1,18.7,16.7,19.7,39
		c1,22.3,1.8,39.1-9.4,53.5c-10.2,13.1-16.8,15.2-27.8,16c-1.3,0.1-22.7,0.7-24.1,0.7c-13.5,0.7-13.9-10.7-19-29.2
		S38,66.7,38.2,61.7z"/>
	
		<linearGradient id="SVGID_00000117650660247477488430000012218656463147969943_" gradientUnits="userSpaceOnUse" x1="18.2193" y1="62.623" x2="104.9063" y2="94.1745">
		<stop  offset="0" style="stop-color:#83C6ED"/>
		<stop  offset="1" style="stop-color:#4880C2"/>
	</linearGradient>
	<path style="fill:url(#SVGID_00000117650660247477488430000012218656463147969943_);" d="M102.7,66.3c-1-22.3-13.4-34.9-19.7-39
		s-13.2-7.9-35.4-4.8c-22.1,3.1-28.1,39.7-28.1,39.7c-0.2,5-2.3,26.6,2.8,45.1c5.1,18.5,25.6,29.4,39.1,28.8
		c13.5-0.7,20.4-1.6,31.8-16.2C104.6,105.4,103.7,88.6,102.7,66.3z M61.3,104.7C49.1,104.2,50.1,81,50,73.6
		c0-7.3,2.2-23.9,11.1-22.4c8.9,1.5,10.7,12.7,11.4,20.9C73.2,80.4,73.5,105.1,61.3,104.7z"/>
	
		<linearGradient id="SVGID_00000106110941682699931410000010138470092354462399_" gradientUnits="userSpaceOnUse" x1="20.8873" y1="78.7212" x2="101.427" y2="78.7212">
		<stop  offset="0" style="stop-color:#6DB9E6"/>
		<stop  offset="1" style="stop-color:#478ECC"/>
	</linearGradient>
	<path style="fill:url(#SVGID_00000106110941682699931410000010138470092354462399_);" d="M100.9,66.8l0-0.4
		c-1.1-25.2-17-36.3-18.8-37.5c-4.7-3.1-9.4-5.6-20-5.6c-4,0-8.8,0.4-14.1,1.1c-20,2.8-26.1,35.9-26.5,38c0,0.6-0.1,1.5-0.1,2.5
		c-0.5,7.8-1.5,26,2.9,41.9c2.1,7.8,7.5,14.9,15,20.1c6.6,4.6,14.5,7.3,21.1,7.3c0.4,0,0.7,0,1.1,0c13.3-0.7,19.6-1.5,30.4-15.5
		C102.6,104.9,101.9,88.9,100.9,66.8z M61.3,104.7C49.1,104.2,50.1,81,50,73.6c0-7.3,2.2-23.9,11.1-22.4
		c8.9,1.5,10.7,12.7,11.4,20.9C73.2,80.4,73.5,105.1,61.3,104.7z"/>
</g>
</svg>
