<?xml version="1.0" encoding="utf-8"?>
<!-- Generator: Adobe Illustrator 26.0.1, SVG Export Plug-In . SVG Version: 6.00 Build 0)  -->
<svg version="1.1" id="Layer_1" xmlns="http://www.w3.org/2000/svg" xmlns:xlink="http://www.w3.org/1999/xlink" x="0px" y="0px"
	 viewBox="0 0 140.1 160.1" style="enable-background:new 0 0 140.1 160.1;" xml:space="preserve">
<style type="text/css">
	.st0{opacity:0.28;fill:#221C3A;}
	.st1{fill:#FFFFFF;}
	.st2{fill:url(#SVGID_1_);}
	.st3{fill:url(#SVGID_00000066515722943458859110000014960118888968679074_);}
	.st4{fill:url(#SVGID_00000167367319117244839360000005688141527769007285_);}
</style>
<g>
	<ellipse class="st0" cx="73.7" cy="129.4" rx="37.4" ry="7"/>
	<path class="st1" d="M71.7,135.6c-1.6,0-2.7-0.3-3.5-0.8h-1.2c-8,0-14.6-6.5-14.6-14.6V76.5c-1.7,0.7-3.6,1.1-5.4,1.1
		c-3.7,0-7.2-1.4-9.9-3.9l-2.4-2.2c-2.9-2.6-4.5-6.2-4.7-10.1c-0.2-3.9,1.2-7.6,3.8-10.5l21.2-23c2.5-2.7,5.9-4.4,9.6-4.7
		c0.8-0.1,1.6-0.2,2.4-0.2h2.3c2.9-0.2,16.1-0.5,16.2-0.5h4.6c8,0,14.6,6.5,14.6,14.6v82.6c0,8-6.5,14.5-14.5,14.6l-18.5,1.3H71.7z"
		/>
	<linearGradient id="SVGID_1_" gradientUnits="userSpaceOnUse" x1="49.28" y1="45.7823" x2="114.9308" y2="111.4331">
		<stop  offset="0" style="stop-color:#478ECC"/>
		<stop  offset="0.9944" style="stop-color:#3C598F"/>
	</linearGradient>
	<path class="st2" d="M90.2,25.6h-4.6c-0.7,0-15.5,0.3-16.2,0.5c-2.9,0.2,8.5,1.1,6.4,3.4l-21.2,23c-4.3,4.7-4,12,0.7,16.3l2.4,2.2
		c4.7,4.3,11.9,4,16.3-0.6v49.4c0,6.4-8.7,12.9-2.3,12.9l18.5-1.3c6.4,0,11.6-5.2,11.6-11.6V37.1C101.8,30.8,96.6,25.6,90.2,25.6z"
		/>
	
		<linearGradient id="SVGID_00000178202940633491281970000002388368773490968967_" gradientUnits="userSpaceOnUse" x1="30.8051" y1="64.8795" x2="95.5723" y2="88.4529">
		<stop  offset="0" style="stop-color:#83C6ED"/>
		<stop  offset="1" style="stop-color:#4880C2"/>
	</linearGradient>
	<path style="fill:url(#SVGID_00000178202940633491281970000002388368773490968967_);" d="M71.7,26h-4.6c-0.7,0-1.4,0.1-2,0.2
		c-2.9,0.2-5.7,1.4-7.8,3.7l-21.2,23c-4.3,4.7-4,12,0.7,16.3l2.4,2.2c4.7,4.3,11.9,4,16.3-0.6v49.4c0,6.4,5.2,11.6,11.6,11.6h4.6
		c6.4,0,11.6-5.2,11.6-11.6V37.6C83.3,31.2,78.1,26,71.7,26z"/>
	
		<linearGradient id="SVGID_00000025442536635098571270000001699854035385265312_" gradientUnits="userSpaceOnUse" x1="45.7506" y1="55.2907" x2="108.1243" y2="117.6645">
		<stop  offset="0" style="stop-color:#6DB9E6"/>
		<stop  offset="1" style="stop-color:#478ECC"/>
	</linearGradient>
	<path style="fill:url(#SVGID_00000025442536635098571270000001699854035385265312_);" d="M67.1,129.9c-5.4,0-9.7-4.4-9.7-9.7v-54
		l-3.2,3.4c-1.9,2-4.4,3.1-7.1,3.1c-2.4,0-4.8-0.9-6.6-2.6L38,67.9c-3.9-3.6-4.2-9.8-0.6-13.7l21.2-23c1.7-1.8,4-2.9,6.5-3.1l0.1,0
		l0.1,0c0.6-0.1,1.1-0.2,1.7-0.2h4.6c5.4,0,9.7,4.4,9.7,9.7v82.6c0,5.4-4.4,9.7-9.7,9.7H67.1z"/>
</g>
</svg>
