<?xml version="1.0" encoding="utf-8"?>
<!-- Generator: Adobe Illustrator 26.0.1, SVG Export Plug-In . SVG Version: 6.00 Build 0)  -->
<svg version="1.1" id="Layer_1" xmlns="http://www.w3.org/2000/svg" xmlns:xlink="http://www.w3.org/1999/xlink" x="0px" y="0px"
	 viewBox="0 0 140.1 160.1" style="enable-background:new 0 0 140.1 160.1;" xml:space="preserve">
<style type="text/css">
	.st0{opacity:0.28;fill:#221C3A;enable-background:new    ;}
	.st1{fill:#FFFFFF;}
	.st2{fill:url(#SVGID_1_);}
	.st3{fill:url(#SVGID_00000126303597818294454450000012954517349343664568_);}
	.st4{fill:url(#SVGID_00000038406584805305825330000018031681930141428386_);}
</style>
<g>
	<ellipse class="st0" cx="69.5" cy="132.8" rx="49.2" ry="7"/>
	<path class="st1" d="M91.9,135.7c-0.1,0-0.3,0-0.4,0H35.8c-5.6-0.1-16.1-3-16.1-13.1v-0.9c0-9.2,0-14.3,3.2-19.7
		c3.3-5.6,19.2-16.5,25-19.6c0.3-0.2,0.6-0.3,1-0.6C46,82,43.3,82,41,82s-4.1-0.1-5.5-0.2c-0.6,0-1.1,0-1.6,0
		c-4.1,0-6.9-0.7-8.9-2.1l-0.2-0.1c-3-2.2-6.3-5.4-6.5-14.2v-0.1v-0.1c1.2-20.4,12.4-42.6,40-43.5c0.1,0,0.2,0,0.2,0
		c1.7-0.1,17.2-0.4,21.5-0.4c0.5,0,0.8,0,1,0c22.8,0.1,35.3,22.9,37.5,33.2c1.7,8.2,1.1,29.7-12.2,40c-3.4,2.6-6.3,4.7-8.7,6.4h11
		h0.1c4.9,0.2,14.1,3,14.1,11.7c0,8.1-0.2,12.8-0.3,13v0.2l-0.1,0.2c-0.7,3.2-4.2,9.3-12.4,9.3c-7.8,0-17,0.5-17,0.5h-0.1
		L91.9,135.7z"/>
	
		<linearGradient id="SVGID_1_" gradientUnits="userSpaceOnUse" x1="33.7212" y1="119.7991" x2="120.0512" y2="33.4691" gradientTransform="matrix(1 0 0 -1 0 160)">
		<stop  offset="0" style="stop-color:#478ECC"/>
		<stop  offset="0.9944" style="stop-color:#3C598F"/>
	</linearGradient>
	<path class="st2" d="M39.8,64.8c0.9-15.7-7.9-38.5,18.9-40.2c1.8-0.1,20.4-0.5,22.3-0.4c21.9,0.1,32.9,23,34.6,30.8
		s0.7,27.9-11.1,37s-17.2,11.8-17.2,11.8h21.3c0,0,11.2,0.5,11.2,8.7s-0.3,12.8-0.3,12.8s-1.5,6.9-9.5,6.9s-17.2,0.5-17.2,0.5
		s-51.7-0.8-51.7-10.5c0-9.8-0.1-14.3,2.8-19.1c2.9-4.8,18-15.4,23.8-18.5c5.8-3.1,20.1-15.9,19.7-22.6c-0.4-6.2-3-8.5-8.6-8.5
		s-9.7,1.8-10.1,6.8c-0.4,5.1,1.3,16.2-7.9,17.4s-25.4,2-27.4,0.5S40,73.2,39.8,64.8z"/>
	
		<linearGradient id="SVGID_00000064345685927004921760000000831543253572221620_" gradientUnits="userSpaceOnUse" x1="18.0721" y1="93.1084" x2="110.2418" y2="59.5614" gradientTransform="matrix(1 0 0 -1 0 160)">
		<stop  offset="0" style="stop-color:#83C6ED"/>
		<stop  offset="1" style="stop-color:#4880C2"/>
	</linearGradient>
	<path style="fill:url(#SVGID_00000064345685927004921760000000831543253572221620_);" d="M21.2,65.3c1-16.7,9.9-42,41.2-40.7
		c21.9,0.1,32.9,23,34.6,30.8s0.7,27.9-11.1,37s-17.2,11.8-17.2,11.8H90c0,0,11.2,0.5,11.2,8.7s-0.3,12.8-0.3,12.8s-1.5,6.9-9.5,6.9
		s-55.7,0-55.7,0s-13.1-0.3-13.1-10.1s-0.1-14.3,2.8-19.1s18-15.4,23.8-18.5S69.3,69,68.9,62.3c-0.4-6.2-3-8.5-8.6-8.5
		s-9.7,1.8-10.1,6.8s1.3,16.2-7.9,17.4s-13.4,0.7-15.5-0.9C24.6,75.7,21.4,73.7,21.2,65.3z"/>
	
		<linearGradient id="SVGID_00000097469965699368767540000011207121425634303901_" gradientUnits="userSpaceOnUse" x1="23.1" y1="81.35" x2="99.4" y2="81.35" gradientTransform="matrix(1 0 0 -1 0 160)">
		<stop  offset="0" style="stop-color:#6DB9E6"/>
		<stop  offset="1" style="stop-color:#478ECC"/>
	</linearGradient>
	<path style="fill:url(#SVGID_00000097469965699368767540000011207121425634303901_);" d="M35.8,130.8c-0.4,0-11.3-0.4-11.3-8.2
		v-0.9c0-8.9,0-13,2.5-17.3c2.5-4.3,17-14.6,23.1-17.8c5.2-2.8,21.2-16.2,20.7-24.3c-0.4-7-3.7-10.2-10.4-10.2
		c-9.3,0-11.6,4.6-12,8.5c-0.1,0.9-0.1,2-0.1,3.2c-0.1,6.7-0.6,11.8-6.2,12.6c-3.3,0.4-6,0.6-8.2,0.6c-2.9,0-5-0.4-6-1.2l-0.2-0.1
		c-1.9-1.4-4.4-3.2-4.6-10.3c0.3-5.7,1.9-16.5,8.4-25.4c6.4-9,16-13.6,28.5-13.6c0.8,0,1.6,0,2.3,0.1h0.1
		c20.3,0.1,31.1,21.6,32.8,29.4c1.7,7.9,0.3,26.8-10.4,35.2C73.4,100,68,102.7,67.9,102.7l0.8,3.5H90c0.7,0,9.4,0.7,9.4,6.8
		c0,7.1-0.2,11.6-0.2,12.5c-0.3,0.9-1.8,5.4-7.6,5.4H35.8V130.8z"/>
</g>
</svg>
