<?xml version="1.0" encoding="utf-8"?>
<!-- Generator: Adobe Illustrator 26.0.1, SVG Export Plug-In . SVG Version: 6.00 Build 0)  -->
<svg version="1.1" id="Layer_1" xmlns="http://www.w3.org/2000/svg" xmlns:xlink="http://www.w3.org/1999/xlink" x="0px" y="0px"
	 viewBox="0 0 140.1 160.1" style="enable-background:new 0 0 140.1 160.1;" xml:space="preserve">
<style type="text/css">
	.st0{opacity:0.28;fill:#221C3A;}
	.st1{fill:#FFFFFF;}
	.st2{fill:url(#SVGID_1_);}
	.st3{fill:url(#SVGID_00000072961574288857963170000003526702585136019618_);}
	.st4{fill:url(#SVGID_00000140694876178254196770000007556121903911046330_);}
</style>
<g>
	<ellipse class="st0" cx="71.3" cy="132.1" rx="46" ry="7"/>
	<path class="st1" d="M67.1,138.8c-0.4,0-0.6,0-0.8,0c-0.9-0.1-1.9-0.2-2.9-0.4c-25-0.5-37.7-15-40.9-22.6c-3-7.2-6.1-16.2-3.2-22.3
		c1.3-2.6,3.6-4.5,6.7-5.3c3.9-1.1,7.7-1.7,11-1.8c0.9-0.2,2.1-0.2,4-0.2c1.6,0,3.4,0.1,5.2,0.1c0.1,0,0.1,0,0.2,0
		c-0.8-1.9-1.2-3.9-1-6.1c0.1-1.2,0.1-2.5,0-4c0-2.3-0.1-4.8,0.4-7.2c-1.3,0.3-2.6,0.4-4,0.4c-1.5,0-3.1-0.2-4.7-0.5
		c-7.7-1.5-9.9-4.6-10.6-6.4c-1.5-2-5.8-8.8-2.5-17c1.3-3.3,8.9-20,26.7-24.1c1.5-0.6,3.1-1,5-1.3c0.4,0,1.2-0.2,7.5-0.2
		c5.9,0,14.1,0.1,15.6,0.2c19.9,1,35.4,9.7,39.3,22.1c3.6,11.2,5.5,23-3.7,33.6c10.1,11,10.3,20.6,9.2,28.5
		c-1.4,9.9-15.1,33.5-40.6,33.5c0,0-0.4,0-0.4,0c-0.7,0-3.4,0.2-6,0.3C72.8,138.5,68.8,138.8,67.1,138.8z"/>
	<linearGradient id="SVGID_1_" gradientUnits="userSpaceOnUse" x1="36.4161" y1="38.2253" x2="115.5913" y2="117.4004">
		<stop  offset="0" style="stop-color:#478ECC"/>
		<stop  offset="0.9944" style="stop-color:#3C598F"/>
	</linearGradient>
	<path class="st2" d="M47.6,60.6c0,0-5.6-6.5-2.4-14.4c2.8-7.1-5-20.9,10.8-23.1c2-0.3,20.4-0.1,22.6,0c19.8,1,33.3,9.6,36.6,20.1
		s5.7,22.4-5,32.7c10.9,10.8,11.6,19.7,10.4,28.1s-13.5,31.2-37.9,31c-1.8,0-14.4,1-16,0.8c-20.8-2-20.2-15.6-22.8-21.7
		c-2.8-6.5-16.5-22.1-6.4-24.8c2.2-0.6,12.3,0.2,14.4-0.1c7.3-1,13.3,0.1,15,4.2c2.1,5.3,6.2,13.1,14.8,11.9s9.8-5.9,10-8.4
		c0.2-2.4-3.6-6.9-11.2-6.3c-7.6,0.7-14.1-3.7-13.5-10.8c0.6-7.1-2.5-17.5,10-18.4s12.1-2.6,11.9-5.5c-0.2-2.9-5.7-6.6-9.9-4.5
		c-4.2,2.1-5.4,3.1-7.3,7.8s-7.4,7.7-15.4,6.2S47.6,60.6,47.6,60.6z"/>
	
		<linearGradient id="SVGID_00000017501638291618477590000010281639406997344926_" gradientUnits="userSpaceOnUse" x1="20.1658" y1="64.4164" x2="105.6421" y2="95.5272">
		<stop  offset="0" style="stop-color:#83C6ED"/>
		<stop  offset="1" style="stop-color:#4880C2"/>
	</linearGradient>
	<path style="fill:url(#SVGID_00000017501638291618477590000010281639406997344926_);" d="M29.1,61c0,0-5.6-6.5-2.4-14.4
		s13.6-24,33.4-23s33.3,9.6,36.6,20.1c3.3,10.5,5.7,22.4-5,32.7c10.9,10.8,11.6,19.7,10.4,28.1s-13.5,31.2-37.9,31
		c-24.4-0.2-36.1-14.3-38.8-20.8c-2.8-6.5-8.5-20.8,1.5-23.6s19.3-2.4,21.4,2.9c2.1,5.3,6.2,13.1,14.8,11.9s9.8-5.9,10-8.4
		c0.2-2.4-3.6-6.9-11.2-6.3s-14.1-3.7-13.5-10.8c0.6-7.1-2.5-17.5,10-18.4s12.1-2.6,11.9-5.5c-0.2-2.9-5.7-6.6-9.9-4.5
		s-5.4,3.1-7.3,7.8s-7.4,7.7-15.4,6.2S29.1,61,29.1,61z"/>
	
		<linearGradient id="SVGID_00000111906475550019986540000013758793408275475355_" gradientUnits="userSpaceOnUse" x1="22.9319" y1="79.4673" x2="100.5909" y2="79.4673">
		<stop  offset="0" style="stop-color:#6DB9E6"/>
		<stop  offset="1" style="stop-color:#478ECC"/>
	</linearGradient>
	<path style="fill:url(#SVGID_00000111906475550019986540000013758793408275475355_);" d="M64.1,133.5c-22.9-0.2-34.3-13-37.1-19.7
		c-1.5-3.7-5.7-13.4-3.3-18.3c0.7-1.4,1.8-2.3,3.6-2.8c3.9-1.1,7.6-1.6,10.7-1.6c2.6,0,7.3,0.4,8.4,3.4c1.3,3.3,5.2,13.2,14.7,13.2
		c0.7,0,1.3,0,2-0.1c9-1.3,11.3-6.2,11.6-10c0.1-1.5-0.5-3.1-1.9-4.6c-2.2-2.4-5.7-3.8-9.7-3.8c-0.5,0-1.1,0-1.6,0.1
		c-0.4,0-0.9,0.1-1.3,0.1c-3.4,0-6.4-1.2-8.3-3.2c-1.4-1.5-2.1-3.5-1.9-5.7c0.1-1.4,0.1-2.9,0.1-4.4c-0.1-7.2,0.2-11.7,8.2-12.3
		c7.7-0.5,11.1-1.4,12.7-3.2c1.2-1.3,1-2.9,0.9-4.1l0-0.2c-0.3-3.5-4.8-6.8-9.1-6.8c-1.2,0-2.4,0.3-3.5,0.8
		c-4.6,2.3-6.2,3.7-8.2,8.8c-1.3,3.4-4.8,5.4-9.6,5.4c-1.2,0-2.5-0.1-3.8-0.4c-5.7-1.1-6.8-3-7-3.3l0-0.6l-0.5-0.3
		c-0.2-0.2-4.8-5.8-2.1-12.5c0.9-2.2,9.4-21.9,29.9-21.9c0.5,0,1.1,0,1.6,0c9.2,0.5,17.3,2.6,23.7,6.2c5.8,3.3,9.7,7.7,11.2,12.5
		c3.1,9.8,5.6,21.1-4.5,30.8L89,76.3l1.3,1.3c10.5,10.4,10.9,18.9,9.8,26.5c-0.9,6.5-11.8,29.4-35.8,29.4L64.1,133.5z"/>
</g>
</svg>
