<?xml version="1.0" encoding="utf-8"?>
<!-- Generator: Adobe Illustrator 26.0.1, SVG Export Plug-In . SVG Version: 6.00 Build 0)  -->
<svg version="1.1" id="Layer_1" xmlns="http://www.w3.org/2000/svg" xmlns:xlink="http://www.w3.org/1999/xlink" x="0px" y="0px"
	 viewBox="0 0 140.1 160.1" style="enable-background:new 0 0 140.1 160.1;" xml:space="preserve">
<style type="text/css">
	.st0{opacity:0.28;fill:#221C3A;}
	.st1{fill:#FFFFFF;}
	.st2{fill:url(#SVGID_1_);}
	.st3{fill:url(#SVGID_00000116195833313070314610000004750471992852754566_);}
	.st4{fill:url(#SVGID_00000181051039754718952550000008101261658934666369_);}
</style>
<g>
	<ellipse class="st0" cx="73.7" cy="132.9" rx="46" ry="7"/>
	<path class="st1" d="M84.3,137.8c-8,0-14.6-6.5-14.6-14.6v-17c-5.2,0.1-13.8,0.2-21.9,0.2c-7.3,0-12.8-0.1-16.2-0.3
		c-4.8-0.3-8.4-1.8-10.7-4.6c-2.6-3.1-2.5-6.6-2.4-7.6V80.6l14.4-50.5c1.5-5.3,6-9.3,11.4-10.3c1.1-0.4,3-0.6,8-0.6
		c1.9,0,3.9,0,5.7,0.1c1.5,0,2.8,0,3.8,0c1.1,0,1.4,0,1.5,0c0.7-0.1,1.4-0.2,2.2-0.2c1.4,0,2.7,0.2,4,0.6l5.1,1.5
		c0.7,0.2,1.3,0.4,1.9,0.7c2.3-1.5,5-2.3,7.8-2.3h3.6c0.7-0.2,1.5-0.3,2.6-0.3l17.7-0.1c8.1,0,14.6,6.5,14.6,14.6v89.1
		c0,8-6.5,14.6-14.6,14.6l-18.5,0.5H84.3z"/>
	<linearGradient id="SVGID_1_" gradientUnits="userSpaceOnUse" x1="42.2912" y1="25.6365" x2="131.9397" y2="115.285">
		<stop  offset="0" style="stop-color:#478ECC"/>
		<stop  offset="0.9944" style="stop-color:#3C598F"/>
	</linearGradient>
	<path class="st2" d="M108.1,22.1l-17.7,0.1c-6.4,0,0.8,5,0.8,11.4v39.8L71.5,74l10.2-35.7c1.8-6.1-1.8-12.5-7.9-14.3l-5.1-1.5
		c-1.7-0.5-3.4-0.6-5-0.3c-1.7,0.3-17-0.5-18.4,0.4c-2.2,1.5,9.9,5.1,9.1,7.8L40,80.6v13.1c0,0-1.2,8.4,10.2,9.1c10,0.6,35,0.1,41,0
		v20c0,6.4-8.1,12-1.7,12l18.5-0.5c6.4,0,11.6-5.2,11.6-11.6V33.6C119.7,27.3,114.5,22.1,108.1,22.1z"/>
	
		<linearGradient id="SVGID_00000038375336166312179350000006540235160454057362_" gradientUnits="userSpaceOnUse" x1="26.4315" y1="56.6418" x2="114.4549" y2="88.6797">
		<stop  offset="0" style="stop-color:#83C6ED"/>
		<stop  offset="1" style="stop-color:#4880C2"/>
	</linearGradient>
	<path style="fill:url(#SVGID_00000038375336166312179350000006540235160454057362_);" d="M89.6,22.5h-5.3
		c-6.4,0-11.6,5.2-11.6,11.6V74l-19.8,0.5l10.2-35.7c1.8-6.1-1.8-12.5-7.9-14.3L50.1,23c-6.1-1.8-12.5,1.8-14.3,7.9L21.5,81v13.1
		c0,0-1.2,8.4,10.2,9.1c10,0.6,35,0.1,41,0v20c0,6.4,5.2,11.6,11.6,11.6h5.3c6.4,0,11.6-5.2,11.6-11.6V34.1
		C101.1,27.7,96,22.5,89.6,22.5z"/>
	
		<linearGradient id="SVGID_00000182491838420965473260000014227660859930866358_" gradientUnits="userSpaceOnUse" x1="23.3162" y1="78.6611" x2="99.2859" y2="78.6611">
		<stop  offset="0" style="stop-color:#6DB9E6"/>
		<stop  offset="1" style="stop-color:#478ECC"/>
	</linearGradient>
	<path style="fill:url(#SVGID_00000182491838420965473260000014227660859930866358_);" d="M84.3,132.9c-5.4,0-9.7-4.4-9.7-9.7v-21.9
		l-1.9,0c-4.1,0.1-14.9,0.3-24.9,0.3c-7.2,0-12.6-0.1-15.9-0.3c-3.4-0.2-5.8-1.2-7.2-2.8c-1.5-1.9-1.3-4.1-1.3-4.2l0-0.1V81.3
		l14.3-49.8c1.2-4.1,5-7,9.3-7c0.9,0,1.8,0.1,2.7,0.4l5.1,1.5c5.1,1.5,8.1,6.9,6.7,12L50.5,76.4l24.1-0.6V34.1
		c0-5.4,4.4-9.7,9.7-9.7h5.3c5.4,0,9.7,4.4,9.7,9.7v89.1c0,5.4-4.4,9.7-9.7,9.7H84.3z"/>
</g>
</svg>
