<?xml version="1.0" encoding="utf-8"?>
<!-- Generator: Adobe Illustrator 26.0.1, SVG Export Plug-In . SVG Version: 6.00 Build 0)  -->
<svg version="1.1" id="Layer_1" xmlns="http://www.w3.org/2000/svg" xmlns:xlink="http://www.w3.org/1999/xlink" x="0px" y="0px"
	 viewBox="0 0 140.1 160.1" style="enable-background:new 0 0 140.1 160.1;" xml:space="preserve">
<style type="text/css">
	.st0{opacity:0.28;fill:#221C3A;}
	.st1{fill:#FFFFFF;}
	.st2{fill:url(#SVGID_1_);}
	.st3{fill:url(#SVGID_00000182496522156049168420000002602421433248429982_);}
	.st4{fill:url(#SVGID_00000183206670294644214290000004688433363532544676_);}
</style>
<g>
	<ellipse class="st0" cx="68.3" cy="133.1" rx="46" ry="7"/>
	<path class="st1" d="M58.5,139.5c-13.9,0-26.1-5.1-31.8-13.3c-7.2-10.4-7.8-15.1-2.5-22.1c1.2-1.6,4.8-5.9,9.6-8.3
		c-8.6-3.9-12.3-9.9-10.9-18c1.2-6.8,5.9-44,5.9-44.4l0-0.1c0.7-4.4,4.5-12.8,13.4-13.5c2.7-0.2,8-0.3,15.7-0.3l1.8,0
		c0.3-0.1,0.7-0.1,1.1-0.1c2.7-0.2,8-0.3,15.7-0.3c13,0,28.7,0.3,28.9,0.3l0.1,0c4.3,0.3,11.8,2.5,12.7,9.2c0.8,6.2,0,16.7,0,17.1
		l0,0.4l-0.1,0.4c-1.2,3.4-4.7,9.2-10.5,9.3c-2.8,0.1-10.9,0.2-17.8,0.4C89.5,56,89.2,56,89,56c-0.6,0-1.3,0-2.3,0
		c7.4,1.5,17.7,5.1,23.9,14.2c9.2,13.5,11.5,22.5,9.4,35.9c-2,12.2-11.9,26.6-29.6,31.2c-2.6,0.7-5.4,1.2-8.2,1.4
		c-2.2,0.2-17.8,0.7-21.4,0.7c0,0-0.4,0-0.5,0C59.6,139.5,59,139.5,58.5,139.5z"/>
	<linearGradient id="SVGID_1_" gradientUnits="userSpaceOnUse" x1="41.3518" y1="38.2973" x2="117.3519" y2="114.2974">
		<stop  offset="0" style="stop-color:#478ECC"/>
		<stop  offset="0.9944" style="stop-color:#3C598F"/>
	</linearGradient>
	<path class="st2" d="M50.3,33.3c0,0,1.8-10.3,10.7-11.1c8.9-0.7,44.3,0,44.3,0s9.1,0.6,9.9,6.5c0.8,5.9,0,16.5,0,16.5
		s-2.4,7.2-7.7,7.3c-5.3,0.1-29.2,0.7-29.2,0.7L78,58.1c0,0,20.7,0.1,30.1,13.9s10.8,22,8.9,33.7s-11.2,24.5-27.4,28.8
		c-2.5,0.7-5.1,1.1-7.7,1.4c-2.2,0.2-19.5,0.7-21.7,0.7c-11.8-0.4-7.6-5.2-12.6-12.4c-7.1-10.1-6.6-13.2-2.5-18.6
		c1.9-2.5-9.2-6.5-6.4-8.2c1.7-1.1,17.2-0.4,19-0.5c1.7-0.1,3.4,0.2,5.1,1.2c6.3,3.9,10.3,8.6,17.1,6.6c6.8-2,7-5.6,6.9-9.4
		c-0.1-3.7-5.8-8.5-11.6-5.4c-4.2,2.3-8.4,4.9-13.9,4.8c-2,0-16.2,1.4-18.5,0.5c-8.8-3.4,0.2-10.3,1.4-17.2
		C45.5,70.9,50.3,33.3,50.3,33.3z"/>
	
		<linearGradient id="SVGID_00000042731541348784859630000009393821748397909680_" gradientUnits="userSpaceOnUse" x1="21.1869" y1="62.1724" x2="104.0946" y2="92.3483">
		<stop  offset="0" style="stop-color:#83C6ED"/>
		<stop  offset="1" style="stop-color:#4880C2"/>
	</linearGradient>
	<path style="fill:url(#SVGID_00000042731541348784859630000009393821748397909680_);" d="M31.7,33.8c0,0,1.8-10.3,10.7-11.1
		c8.9-0.7,44.3,0,44.3,0s9.1,0.6,9.9,6.5c0.8,5.9,0,16.5,0,16.5s-2.4,7.2-7.7,7.3c-5.3,0.1-29.2,0.7-29.2,0.7l-0.2,4.8
		c0,0,20.7,0.1,30.1,13.9s10.8,22,8.9,33.7s-11.2,24.5-27.4,28.8s-34.9-0.3-42-10.4s-6.6-13.2-2.5-18.6c4.1-5.4,11.5-11.3,17.7-7.5
		s10.3,8.6,17.1,6.6c6.8-2,7-5.6,6.9-9.4c-0.1-3.7-5.8-8.5-11.6-5.4s-11.5,6.8-20.3,3.4c-8.8-3.4-11.9-8.5-10.7-15.4
		C27,71.3,31.7,33.8,31.7,33.8z"/>
	
		<linearGradient id="SVGID_00000042014813483817229240000002783489133229493131_" gradientUnits="userSpaceOnUse" x1="25.4718" y1="79.4585" x2="97.3515" y2="79.4585">
		<stop  offset="0" style="stop-color:#6DB9E6"/>
		<stop  offset="1" style="stop-color:#478ECC"/>
	</linearGradient>
	<path style="fill:url(#SVGID_00000042014813483817229240000002783489133229493131_);" d="M58.5,134.7c-12.2,0-23.1-4.4-27.8-11.2
		c-6.9-9.9-5.9-12.1-2.6-16.4c2.9-3.9,7.6-8,11.9-8c1.2,0,2.3,0.3,3.3,1c1.3,0.8,2.6,1.7,3.8,2.5c3.5,2.5,6.9,4.8,11.2,4.8
		c1.2,0,2.4-0.2,3.6-0.5c7.8-2.3,8.4-7,8.2-11.2c-0.1-3.8-4.3-8.2-9.6-8.2c-1.6,0-3.2,0.4-4.7,1.2c-0.4,0.2-0.8,0.4-1.2,0.7
		c-3.7,2-7.1,3.9-11.4,3.9c-2,0-4-0.4-6.1-1.2c-7.7-3-10.6-7.1-9.5-13.4c1.2-6.8,5.7-42.4,6-44.5c0.1-0.7,1.8-8.9,9-9.5
		c2.6-0.2,7.7-0.3,15.3-0.3c12.6,0,27.7,0.3,28.7,0.3c0.5,0,7.6,0.8,8.2,4.9c0.7,5.2,0.1,14.2,0,15.9c-0.4,1-2.5,5.7-5.9,5.8
		c-5.2,0.1-29,0.7-29.2,0.7l-1.7,0l-0.4,8.5l1.9,0c0.2,0,19.9,0.3,28.6,13.1c9.5,13.9,10.3,21.8,8.6,32.4
		C95,116.5,86.2,129,70.6,133.1C66.7,134.2,62.6,134.7,58.5,134.7z"/>
</g>
</svg>
