<?xml version="1.0" encoding="utf-8"?>
<!-- Generator: Adobe Illustrator 26.0.1, SVG Export Plug-In . SVG Version: 6.00 Build 0)  -->
<svg version="1.1" id="Layer_1" xmlns="http://www.w3.org/2000/svg" xmlns:xlink="http://www.w3.org/1999/xlink" x="0px" y="0px"
	 viewBox="0 0 140.1 160.1" style="enable-background:new 0 0 140.1 160.1;" xml:space="preserve">
<style type="text/css">
	.st0{opacity:0.28;fill:#221C3A;}
	.st1{fill:#FFFFFF;}
	.st2{fill:url(#SVGID_1_);}
	.st3{fill:url(#SVGID_00000132074887563362416150000003297266443561863818_);}
	.st4{fill:url(#SVGID_00000152266281347989017980000004987967789272550834_);}
</style>
<g>
	<ellipse class="st0" cx="67.7" cy="129.8" rx="46" ry="7"/>
	<path class="st1" d="M63.4,134.7c-0.2,0-0.4,0-0.6,0c-0.4,0-0.8,0-1.2,0c-5.8,0-11.8-1.4-18-4.1c-9.1-4-23.6-18.9-20.6-49.6
		C25.4,55.5,33.3,45.2,35,43.3c1.4-2.4,9.7-15.1,29.3-19.3c3.2-1,7.1-1.6,11.6-1.8c0.6,0,2.1,0,4.2,0c6.1,0,19,0.1,21.3,0.3l0.2,0
		l0.2,0c12.5,2.5,13.2,10.4,13.1,12.3c0.2,1.9,0.9,12.4-3.8,18c-1.7,2.1-4.1,3.3-6.8,3.6c-1.6,0.1-3.2,0.2-5,0.3
		c-7.2,0.3-14,0.5-18.9,6c16,1.4,23.6,5.4,30,15.1c10.6,16,9.3,31.4-3.6,44.6c-6.8,7-14.6,11-23.2,11.8c-1.6,0.2-18.1,0.6-20.1,0.6
		L63.4,134.7z"/>
	<linearGradient id="SVGID_1_" gradientUnits="userSpaceOnUse" x1="47.0924" y1="42.006" x2="114.9784" y2="109.8921">
		<stop  offset="0" style="stop-color:#478ECC"/>
		<stop  offset="0.9944" style="stop-color:#3C598F"/>
	</linearGradient>
	<path class="st2" d="M56,44.6c0,0-7.7-18.6,20-19.4c2.4-0.1,22.5,0,25.1,0.2c11.4,2.3,10.7,9.5,10.7,9.5s1.8,17.6-7.8,18.5
		s-22.3-1.2-28.9,11.9c19.5,1,26.7,4.8,32.8,14.1s12.3,24.9-3.2,40.8c-7.1,7.3-14.5,10.3-21.3,11c-1.4,0.1-18.6,0.7-20,0.6
		c-6.3-0.1,4-2.5-0.2-4.3c-9.4-4.1-21.5-19.3-18.8-46.6C47.1,53.5,56,44.6,56,44.6z"/>
	
		<linearGradient id="SVGID_00000074415757770162225430000015924674421209747600_" gradientUnits="userSpaceOnUse" x1="28.4817" y1="63.9637" x2="100.8857" y2="90.3166">
		<stop  offset="0" style="stop-color:#83C6ED"/>
		<stop  offset="1" style="stop-color:#4880C2"/>
	</linearGradient>
	<path style="fill:url(#SVGID_00000074415757770162225430000015924674421209747600_);" d="M89.5,79.8c-6.1-9.3-13.3-13.1-32.8-14.1
		C63.3,52.6,76,54.6,85.6,53.8c9.6-0.8,7.8-18.5,7.8-18.5s0.7-7.2-10.7-9.5C49.2,23.2,37.5,45,37.5,45S28.6,54,25.9,81.2
		c-2.6,27.3,9.4,42.5,18.8,46.6c9.4,4.1,26,8.5,41.5-7.3C101.8,104.7,95.6,89,89.5,79.8z M61.1,104.8c-4.1,0-7.4-3.1-7.4-6.9
		c0-3.8,3.3-6.9,7.4-6.9c4.1,0,7.4,3.1,7.4,6.9C68.5,101.7,65.2,104.8,61.1,104.8z"/>
	
		<linearGradient id="SVGID_00000123423344794299872820000011160587660207626894_" gradientUnits="userSpaceOnUse" x1="27.3964" y1="78.6734" x2="94.18" y2="78.6734">
		<stop  offset="0" style="stop-color:#6DB9E6"/>
		<stop  offset="1" style="stop-color:#478ECC"/>
	</linearGradient>
	<path style="fill:url(#SVGID_00000123423344794299872820000011160587660207626894_);" d="M87.9,80.8c-5.4-8.2-11.5-12.2-31.4-13.2
		l-2.8-0.1l1.3-2.5c6-11.9,16.9-12.3,25.7-12.7c1.7-0.1,3.2-0.1,4.7-0.2c1.4-0.1,2.5-0.7,3.4-1.8c3-3.6,2.9-11.8,2.6-14.6l0-0.2
		l0-0.2c0-0.2,0.2-5.5-9.2-7.5c-1.8-0.1-3.5-0.2-5.3-0.2c-14.4,0-24,5-29.5,9.2c-5.9,4.6-8.5,9.2-8.5,9.2L39,46.2l-0.2,0.2
		c-0.1,0.1-8.5,9-11,35.1c-1.1,11.8,0.5,22.5,4.7,31c3.3,6.5,8,11.6,13,13.8c5.6,2.5,11,3.7,16.1,3.7c8.6,0,16.5-3.6,23.3-10.6
		C96.2,107.8,97.2,94.8,87.9,80.8z M61.1,104.8c-4.1,0-7.4-3.1-7.4-6.9c0-3.8,3.3-6.9,7.4-6.9c4.1,0,7.4,3.1,7.4,6.9
		C68.5,101.7,65.2,104.8,61.1,104.8z"/>
</g>
</svg>
