<?xml version="1.0" encoding="utf-8"?>
<!-- Generator: Adobe Illustrator 26.0.1, SVG Export Plug-In . SVG Version: 6.00 Build 0)  -->
<svg version="1.1" id="Layer_1" xmlns="http://www.w3.org/2000/svg" xmlns:xlink="http://www.w3.org/1999/xlink" x="0px" y="0px"
	 viewBox="0 0 140.1 160.1" style="enable-background:new 0 0 140.1 160.1;" xml:space="preserve">
<style type="text/css">
	.st0{opacity:0.28;fill:#221C3A;}
	.st1{fill:#FFFFFF;}
	.st2{fill:url(#SVGID_1_);}
	.st3{fill:url(#SVGID_00000152950525308745879220000017298969333809761947_);}
	.st4{fill:url(#SVGID_00000160888619070844534810000018324993959351745943_);}
</style>
<g>
	<ellipse class="st0" cx="64.1" cy="129.4" rx="46" ry="7"/>
	<path class="st1" d="M58.3,135.5c-0.4,0-0.6,0-0.8,0l-10.2,0c-0.1,0-0.1,0-0.2,0c-1,0-4.5-0.2-7.2-3.3c-2.7-3-3.7-7.6-3.1-13.6
		c1-9.9,4.2-28.6,13.4-41.7c4.5-6.4,8.9-13.6,11.6-18.1H34.2l-0.3-0.1c-3.7-0.9-10.6-4.6-10.6-12.3V33.4c0.1-3.6,3-10.3,13.4-10.3
		h14.1c1.3-0.3,2.8-0.5,4.4-0.5h54.2c1.1,0,6.5,0.2,10.2,4c2.3,2.3,3.3,5.4,3.2,9.2c-0.3,9.9-0.8,23.4-15.6,43.5
		c-12,16.2-18.2,31.8-18.6,46.6l0,0.1c-0.4,5.6-4.8,9.1-11.6,9.1c0,0,0,0,0,0c-0.4,0-0.7,0-0.9,0L58.3,135.5L58.3,135.5z"/>
	<linearGradient id="SVGID_1_" gradientUnits="userSpaceOnUse" x1="41.3791" y1="33.9114" x2="110.5709" y2="103.1032">
		<stop  offset="0" style="stop-color:#478ECC"/>
		<stop  offset="0.9944" style="stop-color:#3C598F"/>
	</linearGradient>
	<path class="st2" d="M85.6,55.4H53.1c0,0-8.3-2-8.3-9.4s0-13.1,0-13.1s0.2-7.3,10.4-7.3s54.2,0,54.2,0s10.7-0.2,10.4,10.1
		s-1,22.8-15,41.8s-18.8,35.2-19.2,48.3c-0.5,7.1-9.4,6.3-9.4,6.3l-17.4,0.5c0,0-2,0.2-0.5-14s5.5-29.7,12.9-40.3
		C78.7,67.6,85.6,55.4,85.6,55.4z"/>
	
		<linearGradient id="SVGID_00000178178037911859931020000011243926668113514410_" gradientUnits="userSpaceOnUse" x1="16.3113" y1="59.9472" x2="87.3806" y2="85.8143">
		<stop  offset="0" style="stop-color:#83C6ED"/>
		<stop  offset="1" style="stop-color:#4880C2"/>
	</linearGradient>
	<path style="fill:url(#SVGID_00000178178037911859931020000011243926668113514410_);" d="M67.1,55.8H34.5c0,0-8.3-2-8.3-9.4
		s0-13.1,0-13.1s0.2-7.3,10.4-7.3s54.2,0,54.2,0s10.7-0.2,10.4,10.1s-1,22.8-15,41.8s-18.8,35.2-19.2,48.3c-0.5,7.1-9.4,6.3-9.4,6.3
		l-10.4,0c0,0-8.9,0.6-7.4-13.6c1.5-14.2,5.5-29.7,12.9-40.3S67.1,55.8,67.1,55.8z"/>
	
		<linearGradient id="SVGID_00000146498592432372835340000004991897437858901419_" gradientUnits="userSpaceOnUse" x1="28.1089" y1="79.3105" x2="99.4301" y2="79.3105">
		<stop  offset="0" style="stop-color:#6DB9E6"/>
		<stop  offset="1" style="stop-color:#478ECC"/>
	</linearGradient>
	<path style="fill:url(#SVGID_00000146498592432372835340000004991897437858901419_);" d="M47.1,130.7c-0.3,0-2.2-0.1-3.6-1.6
		c-1.7-1.9-2.3-5.3-1.8-9.9c1-9.5,3.9-27.2,12.6-39.4c7.4-10.5,14.4-22.8,14.5-23l1.6-2.8H34.8c-1.1-0.3-6.7-2.2-6.7-7.6v-13
		c0-0.7,0.6-5.5,8.6-5.5c0,0,54.2,0,54.2,0c0.2,0,4.3,0,6.7,2.5c1.3,1.3,1.9,3.2,1.8,5.6c-0.3,9.7-0.7,21.9-14.7,40.8
		c-12.6,17-19.1,33.6-19.5,49.3c-0.3,4-4.3,4.5-6.7,4.5c-0.4,0-0.7,0-0.7,0l-0.1,0L47.1,130.7L47.1,130.7L47.1,130.7z"/>
</g>
</svg>
