<?xml version="1.0" encoding="utf-8"?>
<!-- Generator: Adobe Illustrator 26.0.1, SVG Export Plug-In . SVG Version: 6.00 Build 0)  -->
<svg version="1.1" id="Layer_1" xmlns="http://www.w3.org/2000/svg" xmlns:xlink="http://www.w3.org/1999/xlink" x="0px" y="0px"
	 viewBox="0 0 140.1 160.1" style="enable-background:new 0 0 140.1 160.1;" xml:space="preserve">
<style type="text/css">
	.st0{opacity:0.28;fill:#221C3A;}
	.st1{fill:#FFFFFF;}
	.st2{fill:url(#SVGID_1_);}
	.st3{fill:url(#SVGID_00000027588746841326563750000009932088407702029759_);}
	.st4{fill:url(#SVGID_00000006684077172639693400000011571736472488557484_);}
</style>
<g>
	<ellipse class="st0" cx="68.5" cy="132.7" rx="46" ry="7"/>
	<path class="st1" d="M59.7,138.1c-0.8,0-1.3,0-1.7-0.1c-1.5-0.2-2.9-0.5-4.3-0.9c-19.3-3.4-33.2-19.4-33.2-38.2
		c0-8.5,3-16.8,8.4-23.6c-3.4-5.6-5.2-12-5.2-18.6c0-15.9,10.9-30.3,26.4-35c2.2-1.2,4.8-2,8-2.3c0.2,0,0.6-0.1,2.1-0.1
		c3.4,0,10.5,0.1,15.2,0.2c2.2,0,3.9,0.1,4.3,0.1c20.7,0,37.5,16.4,37.5,36.6c0,6.6-1.8,13-5.2,18.6c5.4,6.8,8.4,15,8.4,23.6
		c0,21.4-18.3,38.9-40.7,38.9c-0.6,0-3.2,0.1-6,0.3C68.8,137.8,62.5,138.1,59.7,138.1C59.7,138.1,59.7,138.1,59.7,138.1z"/>
	<linearGradient id="SVGID_1_" gradientUnits="userSpaceOnUse" x1="34.9188" y1="40.3152" x2="112.4099" y2="117.8063">
		<stop  offset="0" style="stop-color:#478ECC"/>
		<stop  offset="0.9944" style="stop-color:#3C598F"/>
	</linearGradient>
	<path class="st2" d="M108.4,75.1c3.7-5.4,5.9-11.8,5.9-18.8c0-18.6-15.5-33.6-34.5-33.6c-1.4,0-20-0.4-21.3-0.3
		c-17.1,2-13.2,16.7-13.2,33.9c0,7,2.2,13.4,5.9,18.8c-5.7,6.3-9.1,14.4-9.1,23.3c0,17.9-1.7,34,16.4,36.6
		c1.9,0.3,19.4-0.8,21.3-0.8c20.8,0,37.7-16.1,37.7-35.9C117.5,89.5,114.1,81.3,108.4,75.1z"/>
	
		<linearGradient id="SVGID_00000088096824387305546210000015334083780931547564_" gradientUnits="userSpaceOnUse" x1="21.6906" y1="64.6525" x2="102.8519" y2="94.1927">
		<stop  offset="0" style="stop-color:#83C6ED"/>
		<stop  offset="1" style="stop-color:#4880C2"/>
	</linearGradient>
	<path style="fill:url(#SVGID_00000088096824387305546210000015334083780931547564_);" d="M89.9,75.5c3.7-5.4,5.9-11.8,5.9-18.8
		c0-18.6-15.5-33.6-34.5-33.6S26.7,38.2,26.7,56.7c0,7,2.2,13.4,5.9,18.8c-5.7,6.3-9.1,14.4-9.1,23.3c0,19.8,16.9,35.9,37.7,35.9
		c20.8,0,37.7-16.1,37.7-35.9C98.9,90,95.5,81.8,89.9,75.5z M61.2,50.6c4,0,7.3,2.8,7.3,6.2c0,3.4-3.3,6.2-7.3,6.2
		c-4,0-7.3-2.8-7.3-6.2C53.9,53.4,57.2,50.6,61.2,50.6z M61.1,106.5c-5.3,0-9.6-3.9-9.6-8.7c0-4.8,4.3-8.7,9.6-8.7s9.6,3.9,9.6,8.7
		C70.7,102.5,66.4,106.5,61.1,106.5z"/>
	
		<linearGradient id="SVGID_00000148650646720494927780000003582686515517174674_" gradientUnits="userSpaceOnUse" x1="25.3625" y1="78.9097" x2="97.0925" y2="78.9097">
		<stop  offset="0" style="stop-color:#6DB9E6"/>
		<stop  offset="1" style="stop-color:#478ECC"/>
	</linearGradient>
	<path style="fill:url(#SVGID_00000148650646720494927780000003582686515517174674_);" d="M88.5,76.8l-1-1.1l0.8-1.2
		c3.6-5.3,5.6-11.4,5.6-17.8C93.9,39.2,79.2,25,61.2,25S28.5,39.2,28.5,56.7c0,6.4,1.9,12.5,5.6,17.8l0.8,1.2l-1,1.1
		c-5.6,6.2-8.6,14-8.6,22.1c0,18.8,16.1,34,35.9,34s35.9-15.3,35.9-34C97.1,90.8,94,82.9,88.5,76.8z M61.2,50.6c4,0,7.3,2.8,7.3,6.2
		c0,3.4-3.3,6.2-7.3,6.2c-4,0-7.3-2.8-7.3-6.2C53.9,53.4,57.2,50.6,61.2,50.6z M61.1,106.5c-5.3,0-9.6-3.9-9.6-8.7
		c0-4.8,4.3-8.7,9.6-8.7s9.6,3.9,9.6,8.7C70.7,102.5,66.4,106.5,61.1,106.5z"/>
</g>
</svg>
