<?xml version="1.0" encoding="utf-8"?>
<!-- Generator: Adobe Illustrator 26.0.1, SVG Export Plug-In . SVG Version: 6.00 Build 0)  -->
<svg version="1.1" id="Layer_1" xmlns="http://www.w3.org/2000/svg" xmlns:xlink="http://www.w3.org/1999/xlink" x="0px" y="0px"
	 viewBox="0 0 140.1 160.1" style="enable-background:new 0 0 140.1 160.1;" xml:space="preserve">
<style type="text/css">
	.st0{opacity:0.28;fill:#221C3A;}
	.st1{fill:#FFFFFF;}
	.st2{fill:url(#SVGID_1_);}
	.st3{fill:url(#SVGID_00000098211825275831850620000011871673931082558384_);}
	.st4{fill:url(#SVGID_00000043437573315864262040000016260353054380639906_);}
</style>
<g>
	<ellipse class="st0" cx="64.9" cy="131.6" rx="46" ry="7"/>
	<path class="st1" d="M39.8,137c-4.3,0-7.2-0.5-9.2-1.4c-3.9-1.9-6.7-3.9-8.1-11.8c-1.3-7.2,0-12.1,0.1-12.3l0.1-0.3l0.1-0.2
		c0-0.1,0.1-0.2,0.1-0.3c2.1-6.1,6.3-9.2,12.6-9.4l0.7,0c7.8-0.1,13.5-0.3,18-3.8c0.7-0.5,1.3-1,1.8-1.5
		c-21.3-1.1-38.2-17.6-38.2-37.6c0-18.1,13.9-33.6,33-37c1-0.3,2-0.5,3.1-0.6c2.5-0.4,22.8-0.5,23-0.5c16.1,0,30.6,8.8,37.1,22.4
		c0.9,1.3,5,7.8,5.7,15.5l0.1,1.5c0.9,9.4,3.2,34.3-9.5,50.5c-13.6,17.3-22.9,23.9-35.8,25.3c-7.3,0.8-12.4,1.1-16.3,1.1
		c0,0,0,0,0,0c-2.2,0-4-0.1-5.5-0.3C47.2,136.7,43.1,137,39.8,137z"/>
	<linearGradient id="SVGID_1_" gradientUnits="userSpaceOnUse" x1="32.9595" y1="39.4713" x2="105.6805" y2="112.1923">
		<stop  offset="0" style="stop-color:#478ECC"/>
		<stop  offset="0.9944" style="stop-color:#3C598F"/>
	</linearGradient>
	<path class="st2" d="M116.8,58.5c-0.7-7.6-5.3-14.2-5.3-14.2s0,0,0,0C105.7,32,92.5,23.4,77,23.4c-2.1,0-20.5,0.2-22.5,0.5
		c-17.8,2.7-15,17-15,34.2c0,19.1,16.8,34.6,37.6,34.6c1.8,0,3.5-0.1,5.2-0.3c-1.6,2.1-4.1,4.3-7.6,7.1c-5.5,4.3-12.1,4.3-20.5,4.5
		s-9.6,6.9-10.1,7.9c0,0-1.2,4.5,0,11.1c1.2,6.6,3.1,7.9,6.4,9.6c3.3,1.7,11.4,1.3,23.8,0c12.4-1.3,21-7.9,33.7-24.1
		C120.7,92.1,117.5,66.1,116.8,58.5z"/>
	
		<linearGradient id="SVGID_00000073693127919530717800000016820829775520878764_" gradientUnits="userSpaceOnUse" x1="15.91" y1="66.4125" x2="96.2325" y2="95.6475">
		<stop  offset="0" style="stop-color:#83C6ED"/>
		<stop  offset="1" style="stop-color:#4880C2"/>
	</linearGradient>
	<path style="fill:url(#SVGID_00000073693127919530717800000016820829775520878764_);" d="M98.2,58.9c-0.7-7.6-5.3-14.2-5.3-14.2
		s0,0,0,0c-5.8-12.3-19-20.9-34.5-20.9c-20.7,0-37.6,15.5-37.6,34.6s16.8,34.6,37.6,34.6c1.8,0,3.5-0.1,5.2-0.3
		c-1.6,2.1-4.1,4.3-7.6,7.1c-5.5,4.3-12.1,4.3-20.5,4.5c-8.4,0.2-9.6,6.9-10.1,7.9c0,0-1.2,4.5,0,11.1c1.2,6.6,3.1,7.9,6.4,9.6
		c3.3,1.7,11.4,1.3,23.8,0c12.4-1.3,21-7.9,33.7-24.1C102.2,92.6,98.9,66.6,98.2,58.9z M60.1,66.3c-4.9,0-8.8-3.3-8.8-7.4
		s4-7.4,8.8-7.4s8.8,3.3,8.8,7.4S65,66.3,60.1,66.3z"/>
	
		<linearGradient id="SVGID_00000183954773909189667810000005335961786695002022_" gradientUnits="userSpaceOnUse" x1="22.7321" y1="78.9165" x2="97.263" y2="78.9165">
		<stop  offset="0" style="stop-color:#6DB9E6"/>
		<stop  offset="1" style="stop-color:#478ECC"/>
	</linearGradient>
	<path style="fill:url(#SVGID_00000183954773909189667810000005335961786695002022_);" d="M96.5,60.6c-0.1-0.6-0.1-1.1-0.1-1.5
		c-0.4-4.1-2-8-3.3-10.4l-0.2,0.4l-1.7-3.5c-5.6-12.1-18.5-19.8-32.8-19.8c-19.7,0-35.7,14.7-35.7,32.8s16,32.8,35.7,32.8
		c1.6,0,3.3-0.1,5-0.3l4.4-0.6l-2.7,3.5c-1.6,2.1-4,4.3-7.9,7.5c-5.8,4.6-12.8,4.7-20.9,4.8l-0.7,0c-6.1,0.1-7.5,4.1-8.1,6.1
		c-0.1,0.2-0.1,0.4-0.2,0.6c-0.2,0.7-0.9,4.7,0.1,10.2c1.1,6.1,2.7,6.9,5.4,8.2c1.2,0.6,3.6,0.9,7,0.9c3.7,0,8.7-0.4,15.8-1.1
		c11.5-1.2,19.7-7.1,32.5-23.4C99.6,92.9,97.4,69.4,96.5,60.6z M60.1,66.3c-4.9,0-8.8-3.3-8.8-7.4s4-7.4,8.8-7.4s8.8,3.3,8.8,7.4
		S65,66.3,60.1,66.3z"/>
</g>
</svg>
